<mxfile host="app.diagrams.net" modified="2024-05-02T22:51:14.601Z" agent="Mozilla/5.0 (Windows NT 10.0; Win64; x64) AppleWebKit/537.36 (KHTML, like Gecko) Chrome/123.0.0.0 Safari/537.36 OPR/109.0.0.0" version="24.0.2" etag="wXikIp2j35h8oVhqkhKw" type="github">
  <diagram name="Page-1" id="aDD_384W-GMZ4xnzEvku">
    <mxGraphModel>
      <root>
        <mxCell id="0" />
        <mxCell id="1" parent="0" />
      </root>
    </mxGraphModel>
  </diagram>
</mxfile>
